<svg width="53" height="53" viewBox="0 0 53 53" fill="none" xmlns="http://www.w3.org/2000/svg">
<path fill-rule="evenodd" clip-rule="evenodd" d="M8.67439 3.25977C5.6802 3.25977 3.25293 5.69214 3.25293 8.69261V43.4628C3.25293 46.4633 5.6802 48.8957 8.67439 48.8957H26.0231C26.6218 48.8957 27.1074 48.4091 27.1074 47.8091V31.5106C27.1074 30.9105 26.6218 30.424 26.0231 30.424H21.6859V24.9911H26.0231C26.6218 24.9911 27.1074 24.5046 27.1074 23.9046V17.3852C27.1074 13.7846 30.02 10.8657 33.6131 10.8657H40.1189V16.2986H37.9503C35.5549 16.2986 33.6131 18.2445 33.6131 20.6449V23.9046C33.6131 24.5046 34.0987 24.9911 34.6974 24.9911H39.7656L38.2166 30.424H34.6974C34.0987 30.424 33.6131 30.9105 33.6131 31.5106V47.8091C33.6131 48.4091 34.0987 48.8957 34.6974 48.8957H43.3717C46.3659 48.8957 48.7932 46.4633 48.7932 43.4628V8.69261C48.7932 5.69214 46.3659 3.25977 43.3717 3.25977H8.67439Z" fill="#004074"/>
</svg>
