<svg width="842" height="258" viewBox="0 0 842 258" fill="none" xmlns="http://www.w3.org/2000/svg">
<path d="M438.43 135.735L399.698 35.1861C398.014 31.1218 395.768 29.8848 391.09 29.8848H372.005C367.14 29.8848 364.895 30.7683 363.398 35.3628L324.853 135.559C323.169 139.8 324.105 142.097 329.344 142.097H346.932C355.352 142.097 357.41 140.33 359.094 135.382L363.024 124.072H399.136L403.066 135.382C404.375 140.33 406.995 142.097 415.602 142.097H433.752C438.617 142.274 440.114 139.977 438.43 135.735ZM385.29 80.9546L391.465 99.5094H370.508L376.683 80.7779C380.051 70.1752 379.864 58.8656 379.864 58.8656H381.548C381.735 58.6889 382.109 70.1752 385.29 80.9546ZM473.606 30.0615H454.708C449.282 30.0615 447.598 31.8286 447.598 36.7765V135.735C447.598 140.683 449.469 142.451 454.708 142.451H520.946C526.185 142.451 528.056 140.683 528.056 135.735V121.422C528.056 116.297 526.185 114.707 520.946 114.707H480.53V36.5998C480.717 31.6519 479.033 30.0615 473.606 30.0615ZM564.355 30.0615H545.457C540.031 30.0615 538.347 31.8286 538.347 36.7765V135.735C538.347 140.683 540.218 142.451 545.457 142.451H611.694C616.934 142.451 618.805 140.683 618.805 135.735V121.422C618.805 116.297 616.934 114.707 611.694 114.707H571.278V36.5998C571.278 31.6519 569.594 30.0615 564.355 30.0615Z" fill="#212121"/>
<path d="M720.593 95.6218H711.986V36.5998C711.986 31.6519 710.115 29.8848 704.876 29.8848H688.223C682.61 29.8848 680.739 30.945 677.371 34.656L626.477 92.0875C623.109 95.7985 622.734 97.5656 622.734 102.867V113.293C622.734 118.241 624.605 120.008 629.845 120.008H680.552V135.559C680.552 140.507 682.236 142.274 687.662 142.274H704.876C710.115 142.274 711.986 140.507 711.986 135.559V119.831H720.593C725.833 119.831 727.704 118.064 727.704 113.116V101.983C727.704 97.3889 725.833 95.6218 720.593 95.6218ZM680.739 68.9382V95.6218H657.35L680.739 68.9382ZM771.113 102.337V36.5998C771.113 31.6519 769.242 29.8848 764.003 29.8848H745.105C739.679 29.8848 737.995 31.6519 737.995 36.5998V100.923C737.995 127.43 755.396 144.571 788.328 144.571C821.446 144.571 838.848 127.43 838.848 100.923V36.5998C838.848 31.6519 836.977 29.8848 831.737 29.8848H812.839C807.413 29.8848 805.729 31.6519 805.729 36.5998V102.337C805.729 111.703 799.929 116.827 788.328 116.827C776.914 116.827 771.113 111.703 771.113 102.337Z" fill="#7AB730"/>
<path fill-rule="evenodd" clip-rule="evenodd" d="M272.247 128.647C272.247 155.86 263.265 181.13 248.109 201.805L238.567 183.251C237.631 181.484 235.76 180.423 233.702 180.423H106.653C102.724 180.423 100.104 176.536 101.976 173.178L159.232 63.263C160.916 59.9055 158.483 56.0178 154.554 56.0178H112.828C110.77 56.0178 108.899 57.0781 107.963 58.8452L31.0604 210.464C11.788 188.199 0 159.748 0 128.647C0 57.6082 60.9982 0 136.217 0C211.248 0 272.247 57.6082 272.247 128.647ZM191.602 220.007L200.957 241.566C181.685 251.462 159.606 257.116 136.217 257.116C111.892 257.116 88.8778 251.108 69.2311 240.505C73.7218 232.377 78.7738 223.718 81.2062 219.477C82.1418 217.886 83.8258 217.003 85.884 217.003H186.924C188.795 217.003 190.853 218.24 191.602 220.007ZM184.679 97.7219L162.038 140.486C160.354 143.844 162.787 147.731 166.716 147.731H213.494C217.423 147.731 220.043 143.667 218.172 140.31L194.221 97.5452C192.163 94.011 186.737 94.011 184.679 97.7219Z" fill="#7AB730"/>
<path d="M324.418 193.179V185.133H361.761V193.179H348.272V226.3H337.765V193.179H324.418V193.179Z" fill="#7AB730"/>
<path d="M379.082 205.651C379.082 199.751 381.354 194.655 385.897 190.632C390.441 186.609 395.978 184.598 402.652 184.598C409.325 184.598 414.863 186.609 419.406 190.766C423.95 194.789 426.08 199.885 426.08 205.785C426.08 211.819 423.808 216.781 419.264 220.938C414.721 225.095 409.183 227.106 402.652 227.106C396.12 227.106 390.441 225.095 386.039 220.938C381.354 216.647 379.082 211.551 379.082 205.651ZM393.281 196.8C390.725 199.214 389.447 202.164 389.447 205.785C389.447 209.271 390.725 212.356 393.281 214.903C395.837 217.451 398.818 218.658 402.51 218.658C406.06 218.658 409.183 217.451 411.739 214.903C414.295 212.356 415.573 209.271 415.573 205.785C415.573 202.298 414.295 199.214 411.739 196.8C409.183 194.387 406.202 193.18 402.51 193.18C398.818 193.046 395.837 194.253 393.281 196.8Z" fill="#7AB730"/>
<path d="M467.965 226.973C462.57 226.973 458.026 225.498 454.334 222.682C450.643 219.732 448.797 215.709 448.797 210.614V185.27H459.304V210.614C459.304 213.027 460.014 215.039 461.576 216.648C463.138 218.257 465.267 219.062 467.965 219.062C470.805 219.062 472.935 218.257 474.497 216.648C476.058 215.039 476.768 213.027 476.768 210.614V185.27H487.275V210.614C487.275 215.709 485.43 219.732 481.738 222.682C477.904 225.498 473.361 226.973 467.965 226.973Z" fill="#7AB730"/>
<path d="M522.347 226.303H511.84V185.27H533.422C538.107 185.27 541.941 186.61 544.923 189.292C547.905 191.974 549.324 195.327 549.324 199.484C549.324 202.434 548.472 204.982 546.911 207.261C545.349 209.541 543.077 211.15 540.237 212.223L550.744 226.437H538.817L529.304 213.698H522.347V226.303ZM522.347 193.181V205.518H532.428C534.7 205.518 536.404 204.982 537.54 203.775C538.675 202.568 539.243 201.093 539.243 199.35C539.243 197.472 538.675 195.997 537.398 194.924C536.262 193.852 534.558 193.181 532.286 193.181H522.347V193.181Z" fill="#7AB730"/>
<path d="M583.113 185.27V226.303H572.605V185.27H583.113V185.27Z" fill="#7AB730"/>
<path d="M605.977 221.473L610.52 214.366C615.348 217.45 620.601 219.059 626.281 219.059C628.695 219.059 630.54 218.657 631.96 217.852C633.38 217.048 634.09 215.975 634.09 214.5C634.09 213.427 633.38 212.354 631.96 211.55C630.54 210.745 628.836 210.209 626.707 209.806C624.577 209.404 622.447 208.868 620.033 208.197C617.619 207.527 615.348 206.856 613.36 206.052C611.23 205.247 609.526 204.04 608.106 202.297C606.686 200.688 605.977 198.676 605.977 196.397C605.977 193.044 607.538 190.228 610.52 188.083C613.502 185.803 618.045 184.73 623.867 184.73C631.25 184.73 637.64 186.34 642.751 189.558L638.35 196.397C634.8 193.983 629.972 192.776 623.867 192.776C618.897 192.776 616.342 193.983 616.342 196.397C616.342 197.47 617.052 198.274 618.471 198.945C619.891 199.615 621.595 200.152 623.725 200.554C625.855 200.956 627.985 201.358 630.54 202.029C633.096 202.699 635.226 203.37 637.356 204.174C639.486 204.979 641.189 206.186 642.467 207.795C643.887 209.404 644.455 211.416 644.455 213.829C644.455 217.718 642.751 220.802 639.344 223.216C635.936 225.63 631.534 226.971 625.855 226.971C618.187 226.971 611.514 225.093 605.977 221.473Z" fill="#7AB730"/>
<path d="M666.891 226.303V185.27H677.54L691.028 204.579L704.659 185.27H715.308V226.303H704.801V200.959L691.028 220.939L677.398 200.959V226.303H666.891Z" fill="#7AB730"/>
<path d="M835.154 222.873C835.154 222.873 843.3 220.432 836.545 213.673C836.545 213.673 832.77 209.542 819.856 206.162C821.247 205.036 823.631 202.783 826.214 200.342L829.393 202.595C829.591 202.783 829.79 202.971 829.989 202.971C830.187 202.971 830.386 203.158 830.585 203.158C832.174 203.534 833.764 202.783 834.161 201.281C834.558 200.342 834.161 199.215 833.565 198.464C833.168 198.089 832.77 197.713 832.174 197.713H831.975L829.79 196.399C833.366 192.081 835.949 187.574 833.962 184.946L832.571 183.632C832.571 183.632 828.002 191.705 807.737 203.722C806.743 203.534 805.949 203.534 804.955 203.346C802.571 202.971 799.988 202.783 797.207 202.407C797.207 202.407 797.008 202.407 796.412 202.219C795.22 202.032 792.836 201.656 789.856 201.281C787.67 200.905 785.286 200.53 782.902 200.342C780.518 199.966 778.134 199.591 776.147 199.403L780.716 197.338L783.895 195.836C783.895 195.836 784.293 195.46 784.491 195.085C784.491 194.897 784.491 194.709 784.094 194.521C783.697 194.521 782.902 194.521 781.313 195.085L779.723 195.648L773.763 197.526L769.193 190.203L768.597 189.076L765.22 183.632C765.22 183.632 762.239 178.374 763.233 184.946C763.233 184.946 765.021 193.958 767.802 198.464L752.703 201.468C752.703 201.468 750.517 202.407 753.696 202.595L768.597 202.407C768.796 202.783 769.193 203.346 769.591 203.909C769.789 204.097 769.789 204.285 769.988 204.473C771.18 206.162 773.365 208.04 776.346 209.918C777.935 210.856 780.12 211.983 783.498 213.485C777.538 214.236 760.054 216.114 739.59 214.424C739.59 214.424 730.451 214.424 746.743 218.93C746.743 218.93 747.736 221.746 748.332 223.061C748.928 224.75 752.703 224.75 752.902 222.873C753.1 221.934 752.107 220.056 752.107 220.056C757.272 220.807 762.637 221.183 769.789 220.995C769.789 220.995 772.173 224.75 773.365 226.065C773.961 226.628 774.557 226.816 775.352 226.816C775.551 226.816 775.948 226.816 776.147 226.816C777.736 226.628 779.127 225.689 779.524 224.75C779.723 224.187 779.723 223.436 779.524 222.873C779.326 222.497 779.127 222.122 778.928 221.746L778.134 220.62C782.703 220.244 787.67 219.681 792.438 218.93C794.028 218.742 795.617 218.367 797.207 218.179C798.2 218.554 799.392 218.742 800.584 219.118C801.776 219.493 803.167 219.869 804.558 220.056C807.339 220.807 810.518 221.559 814.094 222.31C814.094 222.31 817.075 223.061 820.849 223.436C825.022 223.812 830.783 224.187 835.154 222.873Z" fill="#7AB730"/>
</svg>
