<svg width="29" height="29" viewBox="0 0 29 29" fill="none" xmlns="http://www.w3.org/2000/svg">
<path d="M23.6917 8.45273C23.5996 8.0928 23.3392 7.82124 23.041 7.73746C22.5111 7.58973 19.9387 7.25065 14.5012 7.25065C9.06368 7.25065 6.49179 7.58987 5.9598 7.73789C5.66437 7.82005 5.40403 8.09157 5.31074 8.45273C5.17928 8.96555 4.83451 11.1124 4.83451 14.5007C4.83451 17.8888 5.17928 20.0358 5.3111 20.5501C5.40277 20.9086 5.66316 21.1801 5.96011 21.2635C6.49179 21.4115 9.06368 21.7507 14.5012 21.7507C19.9387 21.7507 22.5111 21.4116 23.0425 21.2635C23.338 21.1813 23.5984 20.9098 23.6917 20.5486C23.8231 20.0358 24.1679 17.884 24.1679 14.5007C24.1679 11.1173 23.8231 8.96555 23.6917 8.45273ZM26.0326 7.85262C26.5845 10.0057 26.5845 14.5007 26.5845 14.5007C26.5845 14.5007 26.5845 18.9957 26.0326 21.1487C25.725 22.3395 24.8276 23.2753 23.6901 23.5917C21.6257 24.1673 14.5012 24.1673 14.5012 24.1673C14.5012 24.1673 7.38094 24.1673 5.31228 23.5917C4.17051 23.271 3.27312 22.335 2.96977 21.1487C2.41785 18.9957 2.41785 14.5007 2.41785 14.5007C2.41785 14.5007 2.41785 10.0057 2.96977 7.85262C3.27732 6.66187 4.17473 5.72595 5.31228 5.40959C7.38094 4.83398 14.5012 4.83398 14.5012 4.83398C14.5012 4.83398 21.6257 4.83398 23.6901 5.40959C24.8318 5.73035 25.7293 6.66625 26.0326 7.85262ZM12.0845 18.7298V10.2715L19.3345 14.5007L12.0845 18.7298Z" fill="white"/>
</svg>
