<svg width="48" height="54" viewBox="0 0 48 54" fill="none" xmlns="http://www.w3.org/2000/svg">
<path fill-rule="evenodd" clip-rule="evenodd" d="M11.9272 0C5.33999 0 0 5.3512 0 11.9523V35.8568C0 42.4579 5.33999 47.809 11.9272 47.809H35.7817C42.3689 47.809 47.7089 42.4579 47.7089 35.8568V11.9523C47.7089 5.3512 42.3689 0 35.7817 0H11.9272ZM23.8544 15.212C19.0637 15.212 15.1801 19.1037 15.1801 23.9045C15.1801 28.7052 19.0637 32.5971 23.8544 32.5971C28.6451 32.5971 32.5288 28.7052 32.5288 23.9045C32.5288 19.1037 28.6451 15.212 23.8544 15.212ZM10.8429 23.9045C10.8429 16.7034 16.6684 10.8657 23.8544 10.8657C31.0405 10.8657 36.8659 16.7034 36.8659 23.9045C36.8659 31.1056 31.0405 36.9433 23.8544 36.9433C16.6684 36.9433 10.8429 31.1056 10.8429 23.9045ZM36.8659 6.51941C34.4705 6.51941 32.5288 8.4653 32.5288 10.8657C32.5288 13.2661 34.4705 15.212 36.8659 15.212C39.2614 15.212 41.2031 13.2661 41.2031 10.8657C41.2031 8.4653 39.2614 6.51941 36.8659 6.51941Z" fill="#004074"/>
<ellipse cx="23.8544" cy="51.988" rx="17.0151" ry="2.00597" fill="#AEAEAE"/>
</svg>
