<svg width="45" height="45" viewBox="0 0 45 45" fill="none" xmlns="http://www.w3.org/2000/svg">
<path fill-rule="evenodd" clip-rule="evenodd" d="M0 22.5C0 10.0736 10.0736 0 22.5 0C34.9264 0 45 10.0736 45 22.5C45 34.9264 34.9264 45 22.5 45C10.0736 45 0 34.9264 0 22.5ZM22.5011 10.5C19.2421 10.5 18.8331 10.5142 17.5531 10.5725C16.2756 10.631 15.4036 10.8333 14.6406 11.13C13.8513 11.4365 13.1818 11.8465 12.5148 12.5138C11.8473 13.1808 11.4372 13.8503 11.1297 14.6392C10.8322 15.4026 10.6297 16.2748 10.5723 17.5518C10.515 18.8318 10.5 19.2411 10.5 22.5001C10.5 25.7591 10.5145 26.1669 10.5725 27.4469C10.6313 28.7244 10.8335 29.5964 11.13 30.3594C11.4368 31.1487 11.8467 31.8182 12.514 32.4852C13.1808 33.1527 13.8502 33.5637 14.6391 33.8703C15.4026 34.167 16.2748 34.3692 17.5521 34.4277C18.8321 34.486 19.2409 34.5003 22.4996 34.5003C25.7589 34.5003 26.1667 34.486 27.4467 34.4277C28.7242 34.3692 29.5972 34.167 30.3608 33.8703C31.1497 33.5637 31.8182 33.1527 32.4849 32.4852C33.1524 31.8182 33.5625 31.1487 33.87 30.3597C34.165 29.5964 34.3675 28.7242 34.4275 27.4472C34.485 26.1671 34.5 25.7591 34.5 22.5001C34.5 19.2411 34.485 18.8321 34.4275 17.5521C34.3675 16.2745 34.165 15.4026 33.87 14.6395C33.5625 13.8503 33.1524 13.1808 32.4849 12.5138C31.8174 11.8463 31.1499 11.4363 30.36 11.13C29.5949 10.8333 28.7225 10.631 27.4449 10.5725C26.1649 10.5142 25.7574 10.5 22.4974 10.5H22.5011Z" fill="#004074"/>
</svg>
