<svg width="53" height="53" viewBox="0 0 53 53" fill="none" xmlns="http://www.w3.org/2000/svg">
<path fill-rule="evenodd" clip-rule="evenodd" d="M46.9438 7.03587C47.5593 7.5594 47.8336 8.38215 47.6558 9.17124L40.0657 42.8548C39.9001 43.5895 39.3668 44.1858 38.6562 44.4309C37.9455 44.6761 37.1588 44.535 36.5771 44.058L26.6585 35.9259L22.4974 43.4315C22.0715 44.1999 21.2255 44.6354 20.3541 44.535C19.4828 44.4349 18.7575 43.8183 18.5165 42.9732L14.5426 29.0354L4.99628 27.1221C4.05706 26.9337 3.35234 26.1505 3.26254 25.1948C3.17276 24.2392 3.7192 23.3378 4.60682 22.9771L44.7256 6.67865C45.4738 6.37472 46.3284 6.51236 46.9438 7.03587ZM12.9398 24.2818L16.6898 25.0333C17.486 25.1928 18.1266 25.7848 18.3496 26.5673L21.2485 36.7346L24.1275 31.5416C24.4396 30.9788 24.9845 30.5837 25.6158 30.4627C26.2469 30.3416 26.899 30.5074 27.3964 30.9151L36.6079 38.4676L42.5115 12.268L12.9398 24.2818Z" fill="#004074"/>
<path fill-rule="evenodd" clip-rule="evenodd" d="M46.6958 10.5316C47.6467 9.93168 47.9828 8.70349 47.4704 7.70154C46.9579 6.69957 45.7667 6.25564 44.7256 6.67865L4.60682 22.9773C3.7192 23.3378 3.17276 24.2392 3.26254 25.1947C3.35234 26.1505 4.05706 26.9339 4.99628 27.1221L15.8392 29.2952C16.384 29.4043 16.9498 29.2998 17.4199 29.0032L46.6958 10.5316Z" fill="#004074"/>
<path fill-rule="evenodd" clip-rule="evenodd" d="M47.6559 9.17121C47.8773 8.18811 47.3952 7.18138 46.4913 6.73947C45.5875 6.29754 44.4991 6.53641 43.8621 7.31644L24.3449 31.221C23.5863 32.1498 23.7229 33.5189 24.65 34.2791L36.5772 44.0582C37.1588 44.535 37.9456 44.6762 38.6562 44.4311C39.3669 44.186 39.9001 43.5895 40.0658 42.8549L47.6559 9.17121Z" fill="#004074"/>
</svg>
