<svg id="Слой_1" data-name="Слой 1" xmlns="http://www.w3.org/2000/svg" xmlns:xlink="http://www.w3.org/1999/xlink" viewBox="0 0 1809.8 496.49">
  <defs>
    <style>
      .cls-1 {
        fill: url(#Безымянный_градиент_139);
      }

      .cls-2 {
        fill: url(#Безымянный_градиент_139-2);
      }

      .cls-3 {
        fill: url(#Безымянный_градиент_139-3);
      }

      .cls-4, .cls-6 {
        stroke: #000;
      }

      .cls-15, .cls-16, .cls-17, .cls-4, .cls-6 {
        stroke-miterlimit: 10;
      }

      .cls-4 {
        stroke-width: 3.38px;
        fill: url(#Безымянный_градиент_163);
      }

      .cls-5 {
        fill: url(#Безымянный_градиент_20);
      }

      .cls-6 {
        font-size: 351.55px;
        fill: none;
        stroke-width: 6.77px;
        font-family: SFQuartzite-BoldOblique, SF Quartzite;
        font-weight: 700;
        font-style: oblique;
      }

      .cls-7 {
        fill: url(#Безымянный_градиент_162);
      }

      .cls-8 {
        fill: #1c7fc7;
      }

      .cls-9 {
        fill: url(#Безымянный_градиент_162-2);
      }

      .cls-10 {
        fill: url(#Безымянный_градиент_162-3);
      }

      .cls-11 {
        fill: url(#Безымянный_градиент_162-4);
      }

      .cls-12 {
        fill: url(#Безымянный_градиент_162-5);
      }

      .cls-13 {
        fill: url(#Безымянный_градиент_162-6);
      }

      .cls-14 {
        fill: url(#Безымянный_градиент_162-7);
      }

      .cls-15, .cls-16, .cls-17 {
        stroke-width: 10.46px;
      }

      .cls-15 {
        fill: url(#Безымянный_градиент_4);
        stroke: url(#Безымянный_градиент_7);
      }

      .cls-16 {
        fill: url(#Безымянный_градиент_4-2);
        stroke: url(#Безымянный_градиент_7-2);
      }

      .cls-17 {
        fill: url(#Безымянный_градиент_4-3);
        stroke: url(#Безымянный_градиент_7-3);
      }
    </style>
    <linearGradient id="Безымянный_градиент_139" data-name="Безымянный градиент 139" x1="148.5" y1="348.05" x2="311.85" y2="348.05" gradientUnits="userSpaceOnUse">
      <stop offset="0" stop-color="#f92b18"/>
      <stop offset="1" stop-color="#f9931f"/>
    </linearGradient>
    <linearGradient id="Безымянный_градиент_139-2" x1="57.09" y1="460.97" x2="283.46" y2="460.97" xlink:href="#Безымянный_градиент_139"/>
    <linearGradient id="Безымянный_градиент_139-3" x1="150.58" y1="572.71" x2="311.65" y2="572.71" xlink:href="#Безымянный_градиент_139"/>
    <linearGradient id="Безымянный_градиент_163" data-name="Безымянный градиент 163" x1="315.71" y1="458.51" x2="772.61" y2="458.51" gradientUnits="userSpaceOnUse">
      <stop offset="0" stop-color="#001fd7"/>
      <stop offset="1" stop-color="#00c7df"/>
    </linearGradient>
    <linearGradient id="Безымянный_градиент_20" data-name="Безымянный градиент 20" x1="1300.29" y1="624.49" x2="1302.29" y2="419.6" gradientTransform="matrix(1, 0, -0.17, 1, 62.67, 0)" gradientUnits="userSpaceOnUse">
      <stop offset="0"/>
      <stop offset="0.02" stop-color="#030303"/>
      <stop offset="0.04" stop-color="#0c0c0c"/>
      <stop offset="0.06" stop-color="#1c1c1c"/>
      <stop offset="0.07" stop-color="#333"/>
      <stop offset="0.09" stop-color="#4f4f4f"/>
      <stop offset="0.1" stop-color="#727272"/>
      <stop offset="0.1" stop-color="gray"/>
      <stop offset="0.19" stop-color="#7e7e7e"/>
      <stop offset="0.24" stop-color="#777"/>
      <stop offset="0.27" stop-color="#6a6a6a"/>
      <stop offset="0.29" stop-color="#585858"/>
      <stop offset="0.32" stop-color="#414141"/>
      <stop offset="0.33" stop-color="#333"/>
      <stop offset="0.42" stop-color="#191919"/>
      <stop offset="0.5"/>
      <stop offset="0.52" stop-color="#0c0c0c"/>
      <stop offset="0.59" stop-color="#4d4d4d"/>
      <stop offset="0.62" stop-color="#666"/>
      <stop offset="0.73" stop-color="#636363"/>
      <stop offset="0.81" stop-color="#5a5a5a"/>
      <stop offset="0.87" stop-color="#4a4a4a"/>
      <stop offset="0.94" stop-color="#333"/>
      <stop offset="0.94" stop-color="#333"/>
    </linearGradient>
    <linearGradient id="Безымянный_градиент_162" data-name="Безымянный градиент 162" x1="1397.3" y1="786.37" x2="1425.02" y2="664.57" gradientTransform="matrix(1, 0, -0.23, 1, -110.18, 0)" gradientUnits="userSpaceOnUse">
      <stop offset="0" stop-color="#003ac0"/>
      <stop offset="1" stop-color="#00b3c1"/>
    </linearGradient>
    <linearGradient id="Безымянный_градиент_162-2" x1="1261.09" y1="776.89" x2="1286.99" y2="662.79" xlink:href="#Безымянный_градиент_162"/>
    <linearGradient id="Безымянный_градиент_162-3" x1="1129.63" y1="774.01" x2="1151.03" y2="667.65" xlink:href="#Безымянный_градиент_162"/>
    <linearGradient id="Безымянный_градиент_162-4" x1="1002.36" y1="766.4" x2="1025.44" y2="679.91" xlink:href="#Безымянный_градиент_162"/>
    <linearGradient id="Безымянный_градиент_162-5" x1="1912.57" y1="718.23" x2="1913.76" y2="706.89" xlink:href="#Безымянный_градиент_162"/>
    <linearGradient id="Безымянный_градиент_162-6" x1="1684.34" y1="734.18" x2="1686.84" y2="710.35" xlink:href="#Безымянный_градиент_162"/>
    <linearGradient id="Безымянный_градиент_162-7" x1="1743.96" y1="765.77" x2="1754.15" y2="668.67" xlink:href="#Безымянный_градиент_162"/>
    <linearGradient id="Безымянный_градиент_4" data-name="Безымянный градиент 4" x1="547.77" y1="704.33" x2="555.82" y2="667.64" gradientTransform="matrix(1, 0, 0, 1, 0, 0)" xlink:href="#Безымянный_градиент_162"/>
    <linearGradient id="Безымянный_градиент_7" data-name="Безымянный градиент 7" x1="415.37" y1="682.36" x2="689.95" y2="682.36" gradientUnits="userSpaceOnUse">
      <stop offset="0" stop-color="#1c7fc7"/>
      <stop offset="1" stop-color="#1c7fc7"/>
    </linearGradient>
    <linearGradient id="Безымянный_градиент_4-2" data-name="Безымянный градиент 4" x1="570.13" y1="742.48" x2="575.44" y2="718.29" gradientTransform="matrix(1, 0, 0, 1, 0, 0)" xlink:href="#Безымянный_градиент_162"/>
    <linearGradient id="Безымянный_градиент_7-2" x1="484.05" y1="731.09" x2="662.7" y2="731.09" xlink:href="#Безымянный_градиент_7"/>
    <linearGradient id="Безымянный_градиент_4-3" data-name="Безымянный градиент 4" x1="571.61" y1="781.46" x2="575.33" y2="764.5" gradientTransform="matrix(1, 0, 0, 1, 0, 0)" xlink:href="#Безымянный_градиент_162"/>
    <linearGradient id="Безымянный_градиент_7-3" x1="509.68" y1="773.48" x2="638.07" y2="773.48" xlink:href="#Безымянный_градиент_7"/>
  </defs>
  <g>
    <g>
      <path class="cls-1" d="M299,307.6c-6.82-6.24-22-16.92-56.09,7.12s-59.07,11.87-59.07,11.87c9.8,11.58,35.92,21.46,35.92,21.46-25.83,1.28-71.24,14.75-71.24,14.75l40.37,10.09c22.85-12.17,38.29-9.79,38.29-9.79,33.24.3,48.08,33.24,48.08,33.24s26.71-9.2,34.13-39.18S305.81,313.83,299,307.6Zm-23.15,50.75c-9.79,1.48-28.49,3.26-41.25-5.05,0,0,12.76-7.42,22-4.45,0,0-7.72-2.67-11-8.61,0,0,12.17,4.75,20.18-3s19.89-7.42,20.78,0S285.63,356.87,275.83,358.35Z" transform="translate(-57.09 -291.53)"/>
      <path class="cls-2" d="M282.15,454.75l-7.38-15.42a84.27,84.27,0,0,1-7.21-23.42c-2.43-15.46-14-43.16-67.12-31.14,0,0,17.22,10.68,18.7,18.1,0,0-40.36-11.57-86.67,20.18,0,0,30.28,1.19,35.92,8.91,0,0-73.61,11.87-111.3,28.19,0,0,60,22.56,112.19,29.39,0,0-9.2,10.09-35,6.53,0,0,28.79,28.79,84.88,22.85,0,0-3.26,12.76-18.7,16.92,0,0,35.92,16.32,57.58-14.84,0,0,6.53-10.39,7.72-14.25.92-3,11.85-29.39,16.7-41.07A13.43,13.43,0,0,0,282.15,454.75Zm-14.45,8.46c-23.31,48.29-68.44,13.27-68.44,13.27,11.27.89,16.84-3.27,16.84-3.27C188.72,471.14,162.6,459,162.6,459c9.65-6.09,54.91-13.21,54.91-13.21-3.86-3.86-17.36-4.3-17.36-4.3,39.58-29.14,60.88,1.12,67.32,13.09A9.55,9.55,0,0,1,267.7,463.21Z" transform="translate(-57.09 -291.53)"/>
      <path class="cls-3" d="M275,524.36s-21.77,53-85.28,23.65l-39.18,8.87a548.94,548.94,0,0,0,68.86,15.32s-24,10.53-35.32,20.92c0,0,36.41-8.31,54.71,9.8,0,0,14.86,14.08,31.93,17.56a30.17,30.17,0,0,0,31-13.31C312.14,591.44,325.94,556.5,275,524.36Zm13,52.35a8.86,8.86,0,0,1-4.84,7.35,10.3,10.3,0,0,1-8.75,0,55.69,55.69,0,0,1-9.65-6.11c-2.06-1.55-5.36-2.28-7.93-2.47a16.22,16.22,0,0,0-6.94,1s5-6.13,11.28-6.13c0,0-5.74-4.75-22.36-5.54,0,0,30-12.5,44.18-.29A14.14,14.14,0,0,1,288,576.71Z" transform="translate(-57.09 -291.53)"/>
    </g>
    <path class="cls-4" d="M323.62,293.22l-7.91,19.52c5.8,7.59,11.07,20.69,5.38,43.69A56.54,56.54,0,0,1,316.34,369H452.42l-136,254.77H462.91L598.88,369h143l30.72-75.8Z" transform="translate(-57.09 -291.53)"/>
    <g>
      <path class="cls-5" d="M572.86,622.76q-26.8,0-39.45-15.56-11.67-16.4-1.74-36.35l73.7-145.75H708.82l-73.7,145.75q-3.58,7.44.84,13,4.37,5.93,13.71,5.92h30.74q8.94,0,19.74-5.92,10.51-5.58,14.11-13L787.75,425.1H891.2L817.71,570.85q-10.51,21-38.76,36.35-28.08,15.57-54.24,15.56Z" transform="translate(-57.09 -291.53)"/>
      <path class="cls-5" d="M1041.44,570.85q3.76-7.27-.84-13-4.18-5.75-13.74-5.75H972l-35.84,70.68H832.73L932.54,425.1h212.72q27,0,38.85,15.37,12.63,15.7,2.14,36.49l-8.45,16.22q-12,24.33-47,40.88,25.11,15.59,10.58,44l-22.78,44.69H1015.32ZM1083,477.07q3.86-7.74-.79-13.29-4.61-5.71-13.75-5.71h-49l-31,61h48.82q9.13,0,19.93-5.89,9.93-5.72,14.14-13.11Z" transform="translate(-57.09 -291.53)"/>
      <path class="cls-5" d="M1257.22,425.1h212.72q27,0,38.85,15.38,12.63,15.72,2.13,36.52l-2.46,4.57q-12.39,24.53-47.17,40.41,24.82,16.07,10.8,44l-2.52,4.9q-10.53,21-38.77,36.35-28.07,15.57-54.24,15.56H1157.41ZM1371.93,559q4.13-6.93-.66-12.85-4.61-5.74-14-5.75h-54.84l-25.26,49.38h55q8.93,0,19.73-5.92,10.53-5.58,14.12-13Zm35.52-81.9q4.2-7.41-.58-13.31-4.61-5.73-13.74-5.73h-49l-25.2,49h49q9.35,0,19.67-5.56t14.11-13Z" transform="translate(-57.09 -291.53)"/>
      <path class="cls-5" d="M1546.49,622.76q-27.23,0-39.45-15.56-12.27-15.37-1.74-36.35L1552.67,477q10.47-20.62,38.38-36.52,28.46-15.37,55-15.38H1798q26.17,0,38.64,15.38,12.62,15.72,2.13,36.52l-47.58,93.85q-10.5,20.79-38.56,36.35t-54.24,15.56Zm188.75-145.61q4.21-7.42-.57-13.34-4.61-5.74-14-5.74H1690q-9.13,0-19.7,5.74-10.35,5.74-14.17,13.34l-47.35,93.72q-3.6,7.44.84,13,4.37,5.91,13.71,5.91h30.54q9.14,0,19.93-5.91,10.53-5.58,14.12-13Z" transform="translate(-57.09 -291.53)"/>
    </g>
    <text class="cls-6" transform="matrix(1.21, 0, -0.17, 0.99, 428.52, 331.23)">URBO</text>
    <g>
      <path class="cls-7" d="M1062,781.78a1.87,1.87,0,0,1-1.73-.74,3.33,3.33,0,0,1,.29-3.14L1113.79,673a6.77,6.77,0,0,1,5.49-3.7h86.9a1.88,1.88,0,0,1,1.74.74,3.37,3.37,0,0,1-.32,3.19L1153,778.13a6.78,6.78,0,0,1-5.46,3.65Z" transform="translate(-57.09 -291.53)"/>
      <path class="cls-8" d="M1201.4,674.34l-52.87,101.48a2.13,2.13,0,0,1-1.1.95H1066.7l51.55-101.47a2.18,2.18,0,0,1,1.11-1h82m4.78-10h-86.9a11.69,11.69,0,0,0-9.94,6.43l-53.28,104.87c-2.84,5.6.09,11.14,5.9,11.14h85.55a11.68,11.68,0,0,0,9.89-6.34L1212,675.58c2.93-5.62,0-11.24-5.85-11.24Z" transform="translate(-57.09 -291.53)"/>
    </g>
    <g>
      <path class="cls-9" d="M928.11,781.78a2.14,2.14,0,0,1-2-.87,3.67,3.67,0,0,1,.29-3.47l52.67-104.12a7.26,7.26,0,0,1,5.91-4h78.25a2.15,2.15,0,0,1,2,.86,3.69,3.69,0,0,1-.25,3.42l-51.32,104.11a7.27,7.27,0,0,1-5.95,4Z" transform="translate(-57.09 -291.53)"/>
      <path class="cls-8" d="M1059,674.34l-49.88,101.18a2.63,2.63,0,0,1-1.46,1.25H932.35l51.19-101.19a2.63,2.63,0,0,1,1.45-1.24h74m4.2-10H985a12.2,12.2,0,0,0-10.38,6.73L922,775.18c-3,5.83.11,11.6,6.16,11.6h79.59a12.2,12.2,0,0,0,10.43-6.84l51.33-104.11c2.86-5.81-.22-11.49-6.22-11.49Z" transform="translate(-57.09 -291.53)"/>
    </g>
    <g>
      <path class="cls-10" d="M798.44,781.78a1.61,1.61,0,0,1-1.48-.6,3,3,0,0,1,.24-2.74l51.6-105.59a6.25,6.25,0,0,1,5.11-3.51h72.28a1.62,1.62,0,0,1,1.48.6,3,3,0,0,1-.26,2.75l-52,105.6a6.24,6.24,0,0,1-5.1,3.49Z" transform="translate(-57.09 -291.53)"/>
      <path class="cls-8" d="M921,674.34,870.88,776.08a1.72,1.72,0,0,1-.77.69H803.58L853.29,675a1.7,1.7,0,0,1,.77-.7h67m5.16-10H853.91a11.22,11.22,0,0,0-9.6,6.31l-51.6,105.6c-2.61,5.33.22,10.53,5.73,10.53h71.82a11.23,11.23,0,0,0,9.59-6.28l52-105.6c2.63-5.34-.19-10.56-5.71-10.56Z" transform="translate(-57.09 -291.53)"/>
    </g>
    <g>
      <path class="cls-11" d="M680.9,781.78a1.59,1.59,0,0,1-1.47-.6,3,3,0,0,1,.28-2.78l53.44-105.64a6.24,6.24,0,0,1,5.05-3.42h52.42a1.62,1.62,0,0,1,1.47.59,3,3,0,0,1-.24,2.72L740.23,778.29a6.23,6.23,0,0,1-5.09,3.49Z" transform="translate(-57.09 -291.53)"/>
      <path class="cls-8" d="M785.45,674.34,735.73,776.09a1.65,1.65,0,0,1-.74.68H686.14L737.61,675a1.71,1.71,0,0,1,.75-.68h47.09m5.17-10H738.2a11.18,11.18,0,0,0-9.51,6.16L675.25,776.15c-2.71,5.34.1,10.63,5.65,10.63h54.24a11.19,11.19,0,0,0,9.58-6.3l51.62-105.64c2.6-5.32-.23-10.5-5.72-10.5Z" transform="translate(-57.09 -291.53)"/>
    </g>
    <g>
      <g>
        <path class="cls-12" d="M1649.26,704.61a19.38,19.38,0,0,0-7.3-1.19h-10.83l-9,19h9.75a34.5,34.5,0,0,0,8.85-1.09A22.77,22.77,0,0,0,1648,718a13.18,13.18,0,0,0,4.57-5.18q1.41-2.9.49-5A6.67,6.67,0,0,0,1649.26,704.61Z" transform="translate(-57.09 -291.53)"/>
        <path class="cls-13" d="M1435.51,709.83a12.88,12.88,0,0,0-6-4.72,26.52,26.52,0,0,0-10.4-1.75,46.69,46.69,0,0,0-12.24,1.6,44.35,44.35,0,0,0-10.86,4.52,43.44,43.44,0,0,0-8.75,6.72,28,28,0,0,0-5.76,8.16,19.47,19.47,0,0,0-1.79,7.81,11.76,11.76,0,0,0,1.92,6.67,13.07,13.07,0,0,0,6,4.67,26,26,0,0,0,10.27,1.75,42.82,42.82,0,0,0,12.22-1.55,47.71,47.71,0,0,0,10.93-4.52,41.06,41.06,0,0,0,8.82-6.72,28.77,28.77,0,0,0,5.75-8.11,19.66,19.66,0,0,0,1.8-7.81A12,12,0,0,0,1435.51,709.83Z" transform="translate(-57.09 -291.53)"/>
        <path class="cls-14" d="M1256.52,664.34l-61.71,122.44h438.12c33.06,0,67-22.58,82.29-54.69l32.19-67.75Zm89.57,40h-27.21L1292,760.91h-24.29l26.77-56.58h-27.51l7.53-15.56h79Zm114.41,20a48.22,48.22,0,0,1-10.26,14.48,70.65,70.65,0,0,1-16.06,11.79,88.76,88.76,0,0,1-20.11,7.91,87.56,87.56,0,0,1-22.27,2.84,56.6,56.6,0,0,1-19.45-3,31.13,31.13,0,0,1-12.75-8.11,20.59,20.59,0,0,1-5.35-11.79,28.41,28.41,0,0,1,2.41-14.13A46.62,46.62,0,0,1,1367,710a72,72,0,0,1,16-11.59,86.31,86.31,0,0,1,20-7.71,88.82,88.82,0,0,1,22-2.74,59.13,59.13,0,0,1,19.33,2.84,31.37,31.37,0,0,1,12.89,7.86,20.74,20.74,0,0,1,5.59,11.64A27.12,27.12,0,0,1,1460.5,724.36Zm100.19,10.86a37.2,37.2,0,0,1-11.17,13.93,53.35,53.35,0,0,1-17.63,8.87,75.93,75.93,0,0,1-22,3.06q-11,0-18.35-3.11t-9.9-8.92q-2.51-5.81.9-13.83l22.08-47.11h23.77l-22,45.91a11.66,11.66,0,0,0-1,5.76,5.87,5.87,0,0,0,2.76,4.41q2.46,1.65,7.59,1.65a25.88,25.88,0,0,0,9.66-1.5,21.81,21.81,0,0,0,7.27-4.36,20.63,20.63,0,0,0,4.6-6.06l21.77-45.81h23.63Zm117.45-22.9a31.29,31.29,0,0,1-10.31,12.53,52,52,0,0,1-17.26,8.23c-1,.28-2,.54-3,.78l12.89,27.23h-27.78l-9.54-25.16h-7.46l-12,25.16h-24.26l34.16-72.48h35.87q11.61,0,19,3t10,8.23Q1681.12,705.08,1678.14,712.32Z" transform="translate(-57.09 -291.53)"/>
      </g>
      <path class="cls-8" d="M1731.59,674.34l-25.4,53.46a89.22,89.22,0,0,1-31,35.34c-13.22,8.79-28.24,13.63-42.28,13.63H1211.05l51.63-102.43h468.91m15.82-10H1256.52l-61.71,122.44h438.12c33.06,0,67-22.58,82.29-54.69l32.19-67.75Z" transform="translate(-57.09 -291.53)"/>
    </g>
    <path class="cls-15" d="M684.62,669a.79.79,0,0,0-.77-1.17L421.36,694.71a.85.85,0,0,0,.09,1.7l246.58.52a1.37,1.37,0,0,0,1.2-.69Z" transform="translate(-57.09 -291.53)"/>
    <path class="cls-16" d="M657.44,718.11a.21.21,0,0,0-.21-.31L489.66,737a.43.43,0,0,0,0,.85l150.24,6.5a4.21,4.21,0,0,0,3.84-2.13Z" transform="translate(-57.09 -291.53)"/>
    <path class="cls-17" d="M632.82,764.38a.14.14,0,0,0-.14-.22L515.17,777.64a.3.3,0,0,0,0,.6l105.34,4.55a3,3,0,0,0,2.7-1.49Z" transform="translate(-57.09 -291.53)"/>
  </g>
</svg>
