<svg width="25" height="21" viewBox="0 0 25 21" fill="none" xmlns="http://www.w3.org/2000/svg">
<path d="M21.6917 4.45273C21.5996 4.0928 21.3392 3.82124 21.041 3.73746C20.5111 3.58973 17.9387 3.25065 12.5012 3.25065C7.06368 3.25065 4.49179 3.58987 3.9598 3.73789C3.66437 3.82005 3.40403 4.09157 3.31074 4.45273C3.17928 4.96555 2.83451 7.11242 2.83451 10.5007C2.83451 13.8888 3.17928 16.0358 3.3111 16.5501C3.40277 16.9086 3.66316 17.1801 3.96011 17.2635C4.49179 17.4115 7.06368 17.7507 12.5012 17.7507C17.9387 17.7507 20.5111 17.4116 21.0425 17.2635C21.338 17.1813 21.5984 16.9098 21.6917 16.5486C21.8231 16.0358 22.1679 13.884 22.1679 10.5007C22.1679 7.11732 21.8231 4.96555 21.6917 4.45273ZM24.0326 3.85262C24.5845 6.00565 24.5845 10.5007 24.5845 10.5007C24.5845 10.5007 24.5845 14.9957 24.0326 17.1487C23.725 18.3395 22.8276 19.2753 21.6901 19.5917C19.6257 20.1673 12.5012 20.1673 12.5012 20.1673C12.5012 20.1673 5.38094 20.1673 3.31228 19.5917C2.17051 19.271 1.27312 18.335 0.969765 17.1487C0.417847 14.9957 0.417847 10.5007 0.417847 10.5007C0.417847 10.5007 0.417847 6.00565 0.969765 3.85262C1.27732 2.66187 2.17473 1.72595 3.31228 1.40959C5.38094 0.833984 12.5012 0.833984 12.5012 0.833984C12.5012 0.833984 19.6257 0.833984 21.6901 1.40959C22.8318 1.73035 23.7293 2.66625 24.0326 3.85262ZM10.0845 14.7298V6.27148L17.3345 10.5007L10.0845 14.7298Z" fill="white"/>
</svg>
