<svg width="45" height="45" viewBox="0 0 45 45" fill="none" xmlns="http://www.w3.org/2000/svg">
<circle cx="22.5" cy="22.5" r="22.5" fill="#004074"/>
<path d="M16.7648 30.3467L17.6405 30.8574C19.1035 31.7105 20.7662 32.166 22.5012 32.166C27.84 32.166 32.1679 27.8381 32.1679 22.4993C32.1679 17.1606 27.84 12.8327 22.5012 12.8327C17.1624 12.8327 12.8345 17.1606 12.8345 22.4993C12.8345 24.2349 13.2903 25.8981 14.144 27.3614L14.6543 28.2363L13.8647 31.1382L16.7648 30.3467ZM10.4229 34.5827L12.0565 28.5791C11.0147 26.7933 10.4178 24.716 10.4178 22.4993C10.4178 15.8259 15.8277 10.416 22.5012 10.416C29.1746 10.416 34.5845 15.8259 34.5845 22.4993C34.5845 29.1727 29.1746 34.5827 22.5012 34.5827C20.2852 34.5827 18.2086 33.9862 16.4231 32.945L10.4229 34.5827ZM18.1407 16.8302C18.3025 16.8189 18.4648 16.8171 18.6268 16.825C18.6922 16.8293 18.7574 16.8369 18.8225 16.8444C19.015 16.8667 19.2266 16.9839 19.2977 17.1452C19.6582 17.9625 20.008 18.7845 20.347 19.611C20.4218 19.7934 20.3767 20.0299 20.2344 20.2587C20.1621 20.3761 20.0486 20.5406 19.9172 20.709C19.7805 20.8838 19.4864 21.2053 19.4864 21.2053C19.4864 21.2053 19.3672 21.3482 19.4122 21.5259C19.4297 21.5931 19.4855 21.691 19.5361 21.7733C19.5641 21.8188 19.5901 21.8595 19.607 21.8877C19.9162 22.404 20.3319 22.9275 20.8396 23.4196C20.9851 23.5606 21.1262 23.7045 21.278 23.8382C21.8439 24.3371 22.484 24.7448 23.1755 25.0468L23.1816 25.0495C23.2837 25.0935 23.3362 25.1176 23.4856 25.181C23.561 25.2129 23.6381 25.2405 23.7173 25.2614C23.7459 25.2688 23.7753 25.2731 23.8048 25.2751C24.0001 25.2869 24.1131 25.1615 24.1613 25.1039C25.0356 24.0448 25.1156 23.9757 25.1216 23.9762V23.9781C25.2365 23.857 25.4172 23.815 25.5783 23.8249C25.6519 23.8294 25.7252 23.8435 25.7921 23.8741C26.4347 24.1672 27.4853 24.6244 27.4853 24.6244L28.188 24.9403C28.3057 24.9971 28.4131 25.1309 28.4183 25.2609C28.4214 25.3417 28.4301 25.4722 28.4013 25.711C28.3634 26.0236 28.2683 26.4 28.1738 26.5972C28.1074 26.7355 28.0214 26.8583 27.9213 26.9622C27.7856 27.1031 27.6848 27.1886 27.5217 27.3102C27.4224 27.3842 27.3709 27.419 27.3709 27.419C27.2031 27.5248 27.1085 27.5777 26.9085 27.6842C26.5975 27.8498 26.2538 27.9451 25.9018 27.9632C25.6774 27.9747 25.4536 27.9909 25.2295 27.9788C25.2196 27.9782 24.5429 27.8743 24.5429 27.8743C22.8248 27.4223 21.2358 26.5758 19.9025 25.4018C19.6299 25.1618 19.3771 24.9021 19.119 24.6452C18.0447 23.5757 17.2314 22.4225 16.7383 21.3316C16.4951 20.7937 16.3411 20.2175 16.3387 19.6247C16.3342 18.8913 16.5743 18.1774 17.021 17.5958C17.1091 17.4811 17.1927 17.3622 17.3369 17.226C17.4896 17.0818 17.5868 17.0044 17.6915 16.9508C17.8311 16.8794 17.9844 16.8412 18.1407 16.8302Z" fill="white"/>
</svg>
