<svg width="29" height="29" viewBox="0 0 29 29" fill="none" xmlns="http://www.w3.org/2000/svg">
<path d="M8.76477 22.3467L9.64049 22.8574C11.1035 23.7105 12.7662 24.166 14.5012 24.166C19.84 24.166 24.1679 19.8381 24.1679 14.4993C24.1679 9.16059 19.84 4.83268 14.5012 4.83268C9.16243 4.83268 4.83451 9.16059 4.83451 14.4993C4.83451 16.2349 5.29033 17.8981 6.14396 19.3614L6.65434 20.2363L5.8647 23.1382L8.76477 22.3467ZM2.4229 26.5827L4.05652 20.5791C3.01472 18.7933 2.41785 16.716 2.41785 14.4993C2.41785 7.8259 7.82774 2.41602 14.5012 2.41602C21.1746 2.41602 26.5845 7.8259 26.5845 14.4993C26.5845 21.1727 21.1746 26.5827 14.5012 26.5827C12.2852 26.5827 10.2086 25.9862 8.42312 24.945L2.4229 26.5827ZM10.1407 8.83025C10.3025 8.81888 10.4648 8.81714 10.6268 8.82504C10.6922 8.82934 10.7574 8.83691 10.8225 8.84443C11.015 8.86665 11.2266 8.98385 11.2977 9.14515C11.6582 9.96249 12.008 10.7845 12.347 11.611C12.4218 11.7934 12.3767 12.0299 12.2344 12.2587C12.1621 12.3761 12.0486 12.5406 11.9172 12.709C11.7805 12.8838 11.4864 13.2053 11.4864 13.2053C11.4864 13.2053 11.3672 13.3482 11.4122 13.5259C11.4297 13.5931 11.4855 13.691 11.5361 13.7733C11.5641 13.8188 11.5901 13.8595 11.607 13.8877C11.9162 14.404 12.3319 14.9275 12.8396 15.4196C12.9851 15.5606 13.1262 15.7045 13.278 15.8382C13.8439 16.3371 14.484 16.7448 15.1755 17.0468L15.1816 17.0495C15.2837 17.0935 15.3362 17.1176 15.4856 17.181C15.561 17.2129 15.6381 17.2405 15.7173 17.2614C15.7459 17.2688 15.7753 17.2731 15.8048 17.2751C16.0001 17.2869 16.1131 17.1615 16.1613 17.1039C17.0356 16.0448 17.1156 15.9757 17.1216 15.9762V15.9781C17.2365 15.857 17.4172 15.815 17.5783 15.8249C17.6519 15.8294 17.7252 15.8435 17.7921 15.8741C18.4347 16.1672 19.4853 16.6244 19.4853 16.6244L20.188 16.9403C20.3057 16.9971 20.4131 17.1309 20.4183 17.2609C20.4214 17.3417 20.4301 17.4722 20.4013 17.711C20.3634 18.0236 20.2683 18.4 20.1738 18.5972C20.1074 18.7355 20.0214 18.8583 19.9213 18.9622C19.7856 19.1031 19.6848 19.1886 19.5217 19.3102C19.4224 19.3842 19.3709 19.419 19.3709 19.419C19.2031 19.5248 19.1085 19.5777 18.9085 19.6842C18.5975 19.8498 18.2538 19.9451 17.9018 19.9632C17.6774 19.9747 17.4536 19.9909 17.2295 19.9788C17.2196 19.9782 16.5429 19.8743 16.5429 19.8743C14.8248 19.4223 13.2358 18.5758 11.9025 17.4018C11.6299 17.1618 11.3771 16.9021 11.119 16.6452C10.0447 15.5757 9.23144 14.4225 8.73829 13.3316C8.4951 12.7937 8.34111 12.2175 8.33868 11.6247C8.33422 10.8913 8.57432 10.1774 9.02104 9.59576C9.1091 9.4811 9.19268 9.36218 9.3369 9.22601C9.48962 9.0818 9.58682 9.00438 9.69152 8.95081C9.83108 8.87941 9.98437 8.84123 10.1407 8.83025Z" fill="white"/>
</svg>
