<svg width="45" height="45" viewBox="0 0 45 45" fill="none" xmlns="http://www.w3.org/2000/svg">
<circle cx="22.5" cy="22.5" r="22.5" fill="#004074"/>
<path d="M31.6917 16.4527C31.5996 16.0928 31.3392 15.8212 31.041 15.7375C30.5111 15.5897 27.9387 15.2507 22.5012 15.2507C17.0637 15.2507 14.4918 15.5899 13.9598 15.7379C13.6644 15.8201 13.404 16.0916 13.3107 16.4527C13.1793 16.9656 12.8345 19.1124 12.8345 22.5007C12.8345 25.8888 13.1793 28.0358 13.3111 28.5501C13.4028 28.9086 13.6632 29.1801 13.9601 29.2635C14.4918 29.4115 17.0637 29.7507 22.5012 29.7507C27.9387 29.7507 30.5111 29.4116 31.0425 29.2635C31.338 29.1813 31.5984 28.9098 31.6917 28.5486C31.8231 28.0358 32.1679 25.884 32.1679 22.5007C32.1679 19.1173 31.8231 16.9656 31.6917 16.4527ZM34.0326 15.8526C34.5845 18.0057 34.5845 22.5007 34.5845 22.5007C34.5845 22.5007 34.5845 26.9957 34.0326 29.1487C33.725 30.3395 32.8276 31.2753 31.6901 31.5917C29.6257 32.1673 22.5012 32.1673 22.5012 32.1673C22.5012 32.1673 15.3809 32.1673 13.3123 31.5917C12.1705 31.271 11.2731 30.335 10.9698 29.1487C10.4178 26.9957 10.4178 22.5007 10.4178 22.5007C10.4178 22.5007 10.4178 18.0057 10.9698 15.8526C11.2773 14.6619 12.1747 13.726 13.3123 13.4096C15.3809 12.834 22.5012 12.834 22.5012 12.834C22.5012 12.834 29.6257 12.834 31.6901 13.4096C32.8318 13.7304 33.7293 14.6663 34.0326 15.8526ZM20.0845 26.7298V18.2715L27.3345 22.5007L20.0845 26.7298Z" fill="white"/>
</svg>
